<?xml version="1.0" encoding="utf-8"?>
<!-- Generator: Adobe Illustrator 20.1.0, SVG Export Plug-In . SVG Version: 6.00 Build 0)  -->
<!DOCTYPE svg PUBLIC "-//W3C//DTD SVG 1.1//EN" "http://www.w3.org/Graphics/SVG/1.1/DTD/svg11.dtd">
<svg version="1.1" id="Layer_1" xmlns="http://www.w3.org/2000/svg" xmlns:xlink="http://www.w3.org/1999/xlink" x="0px" y="0px"
	 viewBox="0 0 42.6 42.6" enable-background="new 0 0 42.6 42.6" xml:space="preserve">
<circle fill="#2F1A45" cx="21.3" cy="21.4" r="21.4"/>
<path fill="#FFFFFF" d="M20.3,17.6c0.3,0.4,0.4,0.8,0.4,1.4c0,0.6-0.1,1-0.4,1.3c-0.2,0.2-0.4,0.4-0.7,0.5c0.5,0.2,0.8,0.4,1,0.8
	c0.2,0.4,0.4,0.8,0.4,1.3c0,0.5-0.1,1-0.4,1.4c-0.2,0.3-0.4,0.5-0.6,0.7c-0.3,0.2-0.6,0.4-1,0.5c-0.4,0.1-0.8,0.1-1.3,0.1h-4.1v-9.1
	H18C19.1,16.6,19.9,17,20.3,17.6z M15.4,18.2v2h2.2c0.4,0,0.7-0.1,1-0.2c0.2-0.1,0.4-0.4,0.4-0.8c0-0.4-0.2-0.7-0.5-0.8
	c-0.3-0.1-0.6-0.1-1.1-0.1H15.4z M15.4,21.7v2.4h2.2c0.4,0,0.7-0.1,0.9-0.2c0.4-0.2,0.6-0.6,0.6-1.1c0-0.5-0.2-0.8-0.6-1
	c-0.2-0.1-0.5-0.1-0.9-0.2H15.4z M26.5,19.1c0.5,0.2,0.9,0.5,1.2,1c0.3,0.4,0.5,0.9,0.5,1.4c0,0.3,0.1,0.8,0.1,1.3h-4.9
	c0,0.7,0.3,1.1,0.7,1.4c0.3,0.2,0.6,0.3,1,0.3c0.4,0,0.7-0.1,1-0.3c0.1-0.1,0.3-0.3,0.4-0.5h1.8c0,0.4-0.3,0.8-0.6,1.2
	c-0.6,0.7-1.4,1-2.5,1c-0.9,0-1.7-0.3-2.4-0.8c-0.7-0.5-1-1.4-1-2.7c0-1.2,0.3-2.1,0.9-2.7c0.6-0.6,1.4-0.9,2.4-0.9
	C25.5,18.8,26.1,18.9,26.5,19.1z M23.9,20.6c-0.2,0.3-0.4,0.6-0.5,1h3c0-0.5-0.2-0.8-0.5-1.1c-0.3-0.2-0.6-0.4-1-0.4
	C24.5,20.3,24.2,20.4,23.9,20.6z M26.9,17.1H23v1.1h3.9V17.1z"/>
</svg>
