<?xml version="1.0" encoding="utf-8"?>
<!-- Generator: Adobe Illustrator 20.1.0, SVG Export Plug-In . SVG Version: 6.00 Build 0)  -->
<!DOCTYPE svg PUBLIC "-//W3C//DTD SVG 1.1//EN" "http://www.w3.org/Graphics/SVG/1.1/DTD/svg11.dtd">
<svg version="1.1" id="Layer_1" xmlns="http://www.w3.org/2000/svg" xmlns:xlink="http://www.w3.org/1999/xlink" x="0px" y="0px"
	 viewBox="0 0 42.6 42.6" enable-background="new 0 0 42.6 42.6" xml:space="preserve">
<circle fill="#2F1A45" cx="21.3" cy="21.3" r="21.4"/>
<path fill="#FFFFFF" d="M17.1,27.9h-2.8v-9.1h2.8V27.9z M15.6,17.7L15.6,17.7c-1.1,0-1.7-0.7-1.7-1.6c0-0.9,0.7-1.6,1.7-1.6
	c1.1,0,1.7,0.7,1.7,1.6C17.3,17,16.6,17.7,15.6,17.7z M28.5,27.9h-3.2v-4.7c0-1.2-0.5-2.1-1.6-2.1c-0.9,0-1.3,0.6-1.5,1.1
	C22,22.5,22,22.7,22,23v4.9h-3.2c0,0,0-8.4,0-9.1H22v1.4c0.2-0.6,1.2-1.5,2.8-1.5c2,0,3.6,1.3,3.6,4.1V27.9z"/>
</svg>
