<svg xmlns="http://www.w3.org/2000/svg" viewBox="0 0 42.6 42.6" enable-background="new 0 0 42.6 42.6"><circle fill="#2F1A45" cx="21.3" cy="21.4" r="21.4"/><path fill="#fff" d="M20.3 17.6c.3.4.4.8.4 1.4 0 .6-.1 1-.4 1.3-.2.2-.4.4-.7.5.5.2.8.4 1 .8.2.4.4.8.4 1.3s-.1 1-.4 1.4c-.2.3-.4.5-.6.7-.3.2-.6.4-1 .5-.4.1-.8.1-1.3.1h-4.1v-9.1h4.4c1.1.1 1.9.5 2.3 1.1zm-4.9.6v2h2.2c.4 0 .7-.1 1-.2.2-.1.4-.4.4-.8s-.2-.7-.5-.8c-.3-.1-.6-.1-1.1-.1h-2zm0 3.5v2.4h2.2c.4 0 .7-.1.9-.2.4-.2.6-.6.6-1.1 0-.5-.2-.8-.6-1-.2-.1-.5-.1-.9-.2h-2.2zm11.1-2.6c.5.2.9.5 1.2 1 .3.4.5.9.5 1.4 0 .3.1.8.1 1.3h-4.9c0 .7.3 1.1.7 1.4.3.2.6.3 1 .3s.7-.1 1-.3c.1-.1.3-.3.4-.5h1.8c0 .4-.3.8-.6 1.2-.6.7-1.4 1-2.5 1-.9 0-1.7-.3-2.4-.8s-1-1.4-1-2.7c0-1.2.3-2.1.9-2.7.6-.6 1.4-.9 2.4-.9.4 0 1 .1 1.4.3zm-2.6 1.5c-.2.3-.4.6-.5 1h3c0-.5-.2-.8-.5-1.1-.3-.2-.6-.4-1-.4-.4.2-.7.3-1 .5zm3-3.5h-3.9v1.1h3.9v-1.1z"/></svg>