<svg xmlns="http://www.w3.org/2000/svg" width="2744.8" height="1316" viewBox="0 0 2744.8 1316"><g><path fill="#fff" d="M0 0h13v162.5c18.1-38.1 55.7-70.1 115.2-71.1 79.4 0 129.6 61.3 129.6 129.1 0 66.4-48.8 129.1-129.6 129.1-52 0-92.9-25.5-115.2-69.7v63.6h-13v-343.5zm244.8 220.2c0-68.7-52.5-116.6-116.6-116.6-66 0-116.6 49.7-116.6 117.1 0 63.6 47.4 117.1 115.2 117.1 79.4 0 117.5-61.3 118-117.1v-.5zM295.9 220.2c0-72.9 55.7-128.7 129.6-128.7s129.6 55.7 129.6 129.1c0 73.9-55.7 129.1-129.6 129.1s-129.6-55.3-129.6-129.1v-.4zm13 .9c0 66.4 50.2 116.6 116.6 116.6s116.6-50.2 116.6-117.1c0-66.9-50.2-117.1-116.6-117.1s-116.6 50.2-116.6 117.1v.5zM610.8 97.5h13c0 16.7 0 33-.5 53.4 16.7-42.7 59.5-60.4 103.1-59.5 73.4 1.9 110.1 46 110.1 119.8v132.4h-13v-132.2c0-66.4-32.5-108.7-99.9-107.8-58.5.9-99.9 33.9-99.9 98.5v141.7h-13v-246.3zM908.6 97.5h13c0 16.7 0 33-.5 53.4 16.7-42.7 59.5-60.4 103.1-59.5 73.4 1.9 110.1 46 110.1 119.8v132.4h-13v-132.2c0-66.4-32.5-108.7-99.9-107.8-58.5.9-99.9 33.9-99.9 98.5v141.7h-13v-246.3zM1206.3 97.5h13v246.2h-13zM1283.4 222c.9 80.4 68.3 116.1 116.6 115.7 45.5 0 85.5-23.2 105-65h14.4c-11.1 26-28.8 45.5-49.7 58.5-20.9 12.5-45.1 18.6-70.1 18.6-92.9 0-129.6-73.9-129.6-128.7 0-73.9 56.7-129.6 130.1-129.6 33 0 64.6 11.6 88.3 33 26.9 24.2 42.7 61.3 40.4 97.5h-245.4zm232.3-12c-2.8-59.5-58.1-108.7-115.7-106.4-60.9 0-112.4 44.1-116.1 106.4h231.8zM1910 222c.9 80.4 68.3 116.1 116.6 115.7 45.5 0 85.5-23.2 105-65h14.4c-11.1 26-28.8 45.5-49.7 58.5-20.9 12.5-45.1 18.6-70.1 18.6-92.9 0-129.6-73.9-129.6-128.7 0-73.9 56.7-129.6 130.1-129.6 33 0 64.6 11.6 88.3 33 26.9 24.2 42.7 61.3 40.4 97.5h-245.4zm232.3-12c-2.8-59.5-58.1-108.7-115.7-106.4-60.9 0-112.4 44.1-116.1 106.4h231.8zM2446.5 343.7h-13v-63.6c-22.3 44.1-63.2 69.7-115.2 69.7-80.8 0-129.6-62.7-129.6-129.1 0-67.8 50.2-129.1 129.6-129.1 59.5 0 102.2 36.7 115.2 71.1v-65h13v246zm-244.8-122.6c.5 55.3 38.6 116.6 118 116.6 52.5 0 92.4-32.1 108.2-76.6 5.1-13.5 7.4-28.3 7-43.2 0-14.9-2.8-29.7-8.4-42.7-16.7-42.7-58.1-71.5-108.2-71.5-64.1 0-116.6 47.8-116.6 117.1v.3zM2519 97.5h13c0 16.7 0 33-.5 53.4 16.7-42.7 59.5-60.4 103.1-59.5 73.4 1.9 110.1 46 110.1 119.8v132.4h-13v-132.2c0-66.4-32.5-108.7-99.9-107.8-58.5.9-99.9 33.9-99.9 98.5v141.7h-13v-246.3z"/><path fill="#FA8D29" d="M497.1 222.5h-.1l-112 64.8v-129.6z"/><path stroke="#532D6D" stroke-width="10" stroke-miterlimit="10" d="M1528.9 380.3M1528.9 221.9" fill="none"/><path fill="#fff" d="M1832.9 93.9v151.3c0 20.4-1.4 36.2-7.4 51.6-7 19-28.8 39.5-64.6 40.4-14.4 0-55.7-5.6-69.7-53.9-.5-1.9-.9-3.3-1.4-5.1h-15.3c.9 3.7 1.4 7.9 2.8 11.1 12.1 39.9 47.8 60.4 82.7 60.4 18.1 0 38.1-5.1 54.8-17.7 11.6-8.8 18.6-19.5 23.7-30.2 7.9-19.5 8.4-40.4 8.4-56.7v-151.2h-14z"/><g fill="#fff"><path d="M98 551.7c0 16.4-5.6 26.8-13.5 34-9 8.3-22.1 13.3-34.5 13.3-22.6 0-39.2-12.4-45-27.9h14.4c2.2 3.7 5.4 7.9 10.8 11.4 6.6 4.5 14.4 6.3 20.1 6.3 17.4 0 35.2-12.8 35.2-34.4v-11.1c-6.4 12.2-19.1 20.7-36.7 20.7-28.4 0-47.5-20.6-47.5-45.4 0-25.8 19.8-45.8 47.5-45.8 17.9 0 31.8 9.6 36.8 20.2v-17.8h12.4v76.5zm-84.2-33.2c0 17.5 13 34.5 36.5 34.5 10.3 0 19.1-3.7 25.5-10 6.3-6.3 10-14.9 10.1-24.4 0-7.2-2.5-15.7-8.3-22.6-5.6-6.9-14.7-12-27.7-12-19.9 0-36.2 14.1-36.2 34.4v.1zM217.7 475.3h11.8v14.1c6.6-12.8 18.4-16.2 29.1-16.5v11.7h-1.2c-17.6 0-27.4 10.4-27.4 30v47h-12.3v-86.3zM451.7 561.6h-12.5v-17.8c-7.1 13-21 20.2-37.2 20.2-29.6 0-47.2-21.8-47.2-45.6 0-25.4 19.4-45.6 47.2-45.6 19.4 0 32.8 10.8 37.2 20.6v-18.1h12.5v86.3zm-84.5-43c.2 15.6 11.5 34.4 36.5 34.4 16.1 0 27.9-8.8 32.8-21 2-4.2 3-9 3-13.6.2-4.8-.8-9.6-2.9-13.8-5.1-11.9-17.2-20.7-33.3-20.7-21 0-36.2 15.4-36.2 34.7zM571.5 475.3h11.8v18c7.4-12.5 20.6-20.4 38-20.4 30.6 0 46.6 23.6 46.6 45.9 0 24.1-18.4 45.3-46.6 45.3-20.1 0-33.1-11.1-37.4-20.1v50.5h-12.5v-119.2zm84 43c0-16.2-12-34.5-36.5-34.5-10.1 0-19.1 3.9-25.7 10.1-6.3 6.3-10.1 14.9-10.1 24.7 0 9.6 3.9 18.3 10.5 24.6 6.4 6.1 15.5 9.8 25.7 9.8 20.5 0 36.2-14.8 36.2-34.5v-.2zM782.6 442.8h12.5v46.5c5.6-11.4 19.6-16.9 32.4-16.5 14.4 0 23.8 4.3 30.1 11.9 6.3 7.5 8.6 18 8.6 30.3v46.6h-12.3v-46.1c0-9.3-2-17.2-6.6-22.8-4.9-5.6-12-8.8-22.8-8.8-10 0-17.4 3.4-22.1 8.5-4.9 5.1-7.3 12.2-7.3 20.1v49.1h-12.5v-118.8zM985.8 442.8h12.5v16.5h-12.5v-16.5zm0 32.5h12.5v86.4h-12.5v-86.4zM1206.6 532.4c-5.9 18.3-23.7 31.6-45.5 31.6-30.8 0-48.8-22.5-48.8-45.6 0-25.5 20.4-45.6 48-45.6 20.4 0 40.1 11.6 46.3 32.3h-12.8c-5.7-14.6-20.1-21.4-33-21.4-10.6 0-18.1 3.1-25.7 9.8-6.1 5.6-10.3 14.9-10.3 24.9 0 20.4 16.2 34.5 35.8 34.5 17.4-.2 29.1-10.1 33-20.6h13zM1360.9 496.9c0-9.2-6.4-14.3-15.5-14.3-10 0-16.1 6.4-15.7 14 .3 8.2 6.9 11.6 17.9 14.6 13 3.4 27.5 6.9 28.2 25.4.7 15.9-12.8 27.5-30.1 27.5-14.7 0-30.9-8.8-31.1-27h12.3c.5 11.9 9.8 17.2 18.9 17.2 10.5 0 17.7-7.4 17.6-16.2-.3-9.8-7.1-13.8-22.8-18.1-13-3.7-23.2-8.7-23.5-22.3 0-15.6 13-24.7 28.4-24.7 12.7 0 26.9 6.6 27.7 24.1h-12.3zM1592.6 488.4l-22.1 40 28.1 27.1-8.8 8-25.9-25.2c-8.5 15.7-17.7 25.5-37.9 25.5-23 0-37.7-16.4-37.7-33.7 0-19.7 17.7-30.2 30.1-35.6-8.5-8.5-15.2-15.7-15.5-26.8 0-14.6 12.5-27 29.1-27 16.7 0 29.4 12.4 29.4 27 0 16.1-13.2 22.5-24.8 27.9l25.5 24.7 17.2-31.9h13.3zm-66.2 13.7c-18.9 8.3-24.3 17.7-24.5 27.3.2 12.2 10.1 23 24.8 23 14.5 0 21.5-8 28.6-21.8l-28.9-28.5zm5.6-51.1c-10.5 0-16.7 8.2-16.7 15.9 0 9.3 7.9 15.7 13.9 21.5 13.5-6.3 20.4-10.3 20.4-20.9 0-8.7-6.9-16.5-17.4-16.5h-.2zM1710.9 475.3h11.8v13.6c5.7-10.9 18.4-16.1 28.7-16.1 9.5 0 18.4 2.9 24.8 9.8 2.4 2.2 5.4 8 5.9 9 1.4-2.4 3.2-5.8 6.6-9.2 5.9-5.9 14.9-9.6 25-9.6 9.3 0 18.3 2.6 24.5 8.7 7.9 7.5 10.3 16.9 10.3 32.1v48h-12.5v-47.5c0-9.2-1.5-17.3-6.8-23-3.7-4.5-9.5-7.2-18.1-7.2-7.9 0-15.7 3.1-19.9 9-4.6 6.1-5.4 10.9-5.4 20.7v48h-12.5v-48c.3-9.6-1.2-15.3-4.7-20.6-4.2-5.6-10.6-9-19.9-9.2-8.5-.3-15.5 3.7-19.3 8.8-3.9 5-6.1 11.6-6.1 20.7v48.2h-12.5v-86.2zM1962.4 518.3c0-24.1 18.9-45.4 48.2-45.4 29.4 0 48.3 21.4 48.3 45.6 0 24.2-18.9 45.4-48.3 45.4-29.2 0-48.2-21.2-48.2-45.4v-.2zm12.3.3c0 19.6 15.7 34.4 35.8 34.4 20.3 0 35.8-14.8 35.8-34.5s-15.5-34.5-35.8-34.5c-20.1 0-35.8 14.8-35.8 34.5v.1zM2180.2 484.7h-17.9v-9.5h17.9v-32.4h12.3v32.4h19.9v9.5h-19.9v76.9h-12.3v-76.9zM2321.7 442.8h12.5v16.5h-12.5v-16.5zm0 32.5h12.5v86.4h-12.5v-86.4zM2448.4 518.3c0-24.1 18.9-45.4 48.2-45.4 29.4 0 48.3 21.4 48.3 45.6 0 24.2-18.9 45.4-48.3 45.4-29.2 0-48.2-21.2-48.2-45.4v-.2zm12.4.3c0 19.6 15.7 34.4 35.8 34.4 20.3 0 35.8-14.8 35.8-34.5s-15.5-34.5-35.8-34.5c-20.1 0-35.8 14.8-35.8 34.5v.1zM2659.2 475.3h11.8c0 4.8 0 9.6-.2 15.4 5.2-11.2 17.6-18.1 33.8-17.8 28.2.3 38.2 18.6 38.2 39.7v49.1h-12.3v-46.7c0-18.6-8.8-31.3-29.2-31-18.8.2-29.6 10.9-29.6 28.9v48.8h-12.5v-86.4z"/></g><path fill="#fff" d="M1231.527 34.884l-18.597 18.597-18.597-18.597 18.597-18.597zM1858.568 34.864l-18.597 18.597-18.597-18.597 18.597-18.597z"/><path stroke="#fff" stroke-width="12.078" stroke-miterlimit="10" fill="none" d="M1469.7 1307.4l-283.7-315.7 315.7-283.7 274.8 315.2z"/><path fill="#fff" d="M1297.2 1316l-292.9-335.9 323.9-281.2 293 316.1zM1595.459 1019.552l.646-12.083 180.647 9.654-.646 12.083z"/><path d="M1185.4 1000l-7.9-8.8 230-206.7 8.2 8.9zM1391 1228.9l-212.2-236.3 9-8 212 236.1z"/><path fill="#fff" d="M1502.2 711.4l-174-.4v-12.1l174 .5zM1297.2 1303.9h172.4v12.1h-172.4z"/></g></svg>