<svg xmlns="http://www.w3.org/2000/svg" viewBox="0 0 42.8 42.8" enable-background="new 0 0 42.8 42.8"><circle fill="#2F1A45" cx="21.4" cy="21.4" r="21.4"/><path fill="#fff" d="M28.6 16.1c-.6.3-1.2.5-1.8.5.7-.4 1.2-1.1 1.4-1.9-.6.4-1.3.7-2 .8-.6-.7-1.4-1.1-2.3-1.1-1.8 0-3.2 1.5-3.2 3.4 0 .3 0 .5.1.8-2.6-.1-5-1.5-6.5-3.6-.3.5-.4 1.1-.4 1.7 0 1.2.6 2.2 1.4 2.8-.5 0-1-.2-1.4-.4 0 1.7 1.1 3 2.5 3.3-.3.1-.5.1-.8.1-.2 0-.4 0-.6-.1.4 1.4 1.6 2.3 3 2.4-1.1.9-2.5 1.5-3.9 1.5h-.8c1.4 1 3.1 1.5 4.9 1.5 5.8 0 9-5.2 9-9.7v-.4c.4-.3.9-.9 1.4-1.6z"/></svg>