<?xml version="1.0" encoding="utf-8"?>
<!-- Generator: Adobe Illustrator 20.1.0, SVG Export Plug-In . SVG Version: 6.00 Build 0)  -->
<!DOCTYPE svg PUBLIC "-//W3C//DTD SVG 1.1//EN" "http://www.w3.org/Graphics/SVG/1.1/DTD/svg11.dtd">
<svg version="1.1" id="Layer_1" xmlns="http://www.w3.org/2000/svg" xmlns:xlink="http://www.w3.org/1999/xlink" x="0px" y="0px"
	 viewBox="0 0 42.8 42.8" enable-background="new 0 0 42.8 42.8" xml:space="preserve">
<circle fill="#2F1A45" cx="21.4" cy="21.4" r="21.4"/>
<g>
	<g>
		<path fill="#FFFFFF" d="M28.6,16.1c-0.6,0.3-1.2,0.5-1.8,0.5c0.7-0.4,1.2-1.1,1.4-1.9c-0.6,0.4-1.3,0.7-2,0.8
			c-0.6-0.7-1.4-1.1-2.3-1.1c-1.8,0-3.2,1.5-3.2,3.4c0,0.3,0,0.5,0.1,0.8c-2.6-0.1-5-1.5-6.5-3.6c-0.3,0.5-0.4,1.1-0.4,1.7
			c0,1.2,0.6,2.2,1.4,2.8c-0.5,0-1-0.2-1.4-0.4c0,0,0,0,0,0c0,1.7,1.1,3,2.5,3.3c-0.3,0.1-0.5,0.1-0.8,0.1c-0.2,0-0.4,0-0.6-0.1
			c0.4,1.4,1.6,2.3,3,2.4c-1.1,0.9-2.5,1.5-3.9,1.5c-0.3,0-0.5,0-0.8,0c1.4,1,3.1,1.5,4.9,1.5c5.8,0,9-5.2,9-9.7c0-0.1,0-0.3,0-0.4
			C27.6,17.4,28.1,16.8,28.6,16.1z"/>
	</g>
</g>
</svg>
