<svg xmlns="http://www.w3.org/2000/svg" viewBox="0 0 42.8 42.8" enable-background="new 0 0 42.8 42.8"><circle fill="#2F1A45" cx="21.4" cy="21.4" r="21.4"/><path fill="#fff" d="M28.7 17.9c-.1 1.4-1.1 3.4-3 5.8-2 2.6-3.7 3.9-5 3.9-.9 0-1.6-.8-2.2-2.4l-1.2-4.3c-.4-1.6-.9-2.4-1.4-2.4-.1 0-.5.2-1.1.7l-.7-.9 2.1-1.9c1-.8 1.7-1.3 2.2-1.3 1.1-.1 1.8.7 2.1 2.3.3 1.8.5 2.9.6 3.3.3 1.5.7 2.2 1.1 2.2.3 0 .8-.5 1.4-1.4.6-1 .9-1.7 1-2.2.1-.8-.2-1.2-1-1.2-.3 0-.7.1-1.1.2.7-2.3 2.1-3.5 4.1-3.4 1.5.2 2.2 1.1 2.1 3z"/></svg>