<?xml version="1.0" encoding="utf-8"?>
<!-- Generator: Adobe Illustrator 20.1.0, SVG Export Plug-In . SVG Version: 6.00 Build 0)  -->
<!DOCTYPE svg PUBLIC "-//W3C//DTD SVG 1.1//EN" "http://www.w3.org/Graphics/SVG/1.1/DTD/svg11.dtd">
<svg version="1.1" id="Layer_1" xmlns="http://www.w3.org/2000/svg" xmlns:xlink="http://www.w3.org/1999/xlink" x="0px" y="0px"
	 viewBox="0 0 42.8 42.8" enable-background="new 0 0 42.8 42.8" xml:space="preserve">
<circle fill="#2F1A45" cx="21.4" cy="21.4" r="21.4"/>
<path fill="#FFFFFF" d="M28.7,17.9c-0.1,1.4-1.1,3.4-3,5.8c-2,2.6-3.7,3.9-5,3.9c-0.9,0-1.6-0.8-2.2-2.4c-0.4-1.4-0.8-2.9-1.2-4.3
	c-0.4-1.6-0.9-2.4-1.4-2.4c-0.1,0-0.5,0.2-1.1,0.7l-0.7-0.9c0.7-0.6,1.4-1.3,2.1-1.9c1-0.8,1.7-1.3,2.2-1.3c1.1-0.1,1.8,0.7,2.1,2.3
	c0.3,1.8,0.5,2.9,0.6,3.3c0.3,1.5,0.7,2.2,1.1,2.2c0.3,0,0.8-0.5,1.4-1.4c0.6-1,0.9-1.7,1-2.2c0.1-0.8-0.2-1.2-1-1.2
	c-0.3,0-0.7,0.1-1.1,0.2c0.7-2.3,2.1-3.5,4.1-3.4C28.1,15.1,28.8,16,28.7,17.9z"/>
</svg>
